HIERARCHY
ROOT Hips
{
	OFFSET 0.000000 0.000000 0.000000
	CHANNELS 6 Xposition Yposition Zposition Zrotation Yrotation Xrotation 
	JOINT LeftUpLeg_virtual
	{
		OFFSET 0.000000 0.000000 0.000000
		CHANNELS 3 Zrotation Yrotation Xrotation
		JOINT LeftUpLeg
		{
			OFFSET 8.479694 -4.795517 -0.379053
			CHANNELS 3 Zrotation Yrotation Xrotation
			JOINT LeftLeg
			{
				OFFSET 0.485052 -32.551468 0.112863
				CHANNELS 3 Zrotation Yrotation Xrotation
				JOINT LeftFoot
				{
					OFFSET 0.438033 -32.635670 -3.012641
					CHANNELS 3 Zrotation Yrotation Xrotation
					JOINT LeftToeBase
					{
						OFFSET 0.970169 -13.225353 11.864223
						CHANNELS 3 Zrotation Yrotation Xrotation
						End Site
						{
							OFFSET 0.000000 0.000000 0.000000
						}
					}
				}
			}
		}
	}
	JOINT RightUpLeg_virtual
	{
		OFFSET 0.000000 0.000000 0.000000
		CHANNELS 3 Zrotation Yrotation Xrotation
		JOINT RightUpLeg
		{
			OFFSET -8.479694 -4.795517 -0.379053
			CHANNELS 3 Zrotation Yrotation Xrotation
			JOINT RightLeg
			{
				OFFSET -0.484100 -32.551483 0.112903
				CHANNELS 3 Zrotation Yrotation Xrotation
				JOINT RightFoot
				{
					OFFSET -0.438985 -32.635651 -3.012681
					CHANNELS 3 Zrotation Yrotation Xrotation
					JOINT RightToeBase
					{
						OFFSET -0.970169 -13.225354 11.864223
						CHANNELS 3 Zrotation Yrotation Xrotation
						End Site
						{
							OFFSET 0.000000 0.000000 0.000000
						}
					}
				}
			}
		}
	}
	JOINT Spine_virtual
	{
		OFFSET 0.000000 0.000000 0.000000
		CHANNELS 3 Zrotation Yrotation Xrotation
		JOINT Spine
		{
			OFFSET 0.000000 7.722015 1.166203
			CHANNELS 3 Zrotation Yrotation Xrotation
			JOINT Spine1
			{
				OFFSET 0.000000 12.024086 0.248766
				CHANNELS 3 Zrotation Yrotation Xrotation
				JOINT Spine2
				{
					OFFSET -0.000000 11.503036 -0.491240
					CHANNELS 3 Zrotation Yrotation Xrotation
					JOINT Neck_virtual
					{
						OFFSET 0.000000 0.000000 0.000000
						CHANNELS 3 Zrotation Yrotation Xrotation
						JOINT Neck
						{
							OFFSET 0.000000 18.430687 -3.123054
							CHANNELS 3 Zrotation Yrotation Xrotation
							JOINT Head
							{
								OFFSET -0.000000 9.051071 1.034021
								CHANNELS 3 Zrotation Yrotation Xrotation
								End Site
								{
									OFFSET 0.000000 0.000000 0.000000
								}
							}
						}
					}
					JOINT LeftShoulder_virtual
					{
						OFFSET 0.000000 0.000000 0.000000
						CHANNELS 3 Zrotation Yrotation Xrotation
						JOINT LeftShoulder
						{
							OFFSET 6.197824 13.665230 -4.064723
							CHANNELS 3 Zrotation Yrotation Xrotation
							JOINT LeftArm
							{
								OFFSET 7.778132 -0.187073 -1.709282
								CHANNELS 3 Zrotation Yrotation Xrotation
								JOINT LeftForeArm
								{
									OFFSET 21.954697 0.000000 -2.041093
									CHANNELS 3 Zrotation Yrotation Xrotation
									JOINT LeftHand
									{
										OFFSET 22.992908 0.000000 -0.870901
										CHANNELS 3 Zrotation Yrotation Xrotation
										End Site
										{
											OFFSET 0.000000 0.000000 0.000000
										}
									}
								}
							}
						}
					}
					JOINT RightShoulder_virtual
					{
						OFFSET 0.000000 0.000000 0.000000
						CHANNELS 3 Zrotation Yrotation Xrotation
						JOINT RightShoulder
						{
							OFFSET -6.197824 13.665230 -4.064723
							CHANNELS 3 Zrotation Yrotation Xrotation
							JOINT RightArm
							{
								OFFSET -7.778132 -0.187073 -1.709282
								CHANNELS 3 Zrotation Yrotation Xrotation
								JOINT RightForeArm
								{
									OFFSET -21.954697 0.000000 -2.041093
									CHANNELS 3 Zrotation Yrotation Xrotation
									JOINT RightHand
									{
										OFFSET -22.992908 0.000000 -0.870901
										CHANNELS 3 Zrotation Yrotation Xrotation
										End Site
										{
											OFFSET 0.000000 0.000000 0.000000
										}
									}
								}
							}
						}
					}
				}
			}
		}
	}
}
MOTION
Frames: 8
Frame Time: 0.033333
-13.096333 80.739792 -0.055378 179.827106 0.820536 179.973900 -1.940084 -3.825471 12.967837 2.662316 -4.095752 -20.518023 6.367970 0.011748 28.958096 -3.382197 -6.793108 -10.694262 0.000000 0.000000 0.000000 1.807122 -4.730737 13.580737 -5.832104 3.862437 -24.305937 0.222901 6.494622 34.233304 10.737506 2.465006 -14.026269 0.000000 0.000000 0.000000 4.350345 -1.032680 -1.430164 -3.130090 1.127809 -2.515792 0.420967 -1.327099 8.045807 -0.007017 0.020594 0.010175 0.068547 0.264418 8.821082 0.235199 -1.772051 -3.074624 0.000000 0.000000 0.000000 1.353645 0.916186 6.090891 -12.856417 -11.610914 6.392465 -51.144470 -23.389208 -2.209342 1.137451 -36.672122 3.003899 0.000000 0.000000 0.000000 -2.574771 2.526394 5.562387 19.287406 1.084310 7.551525 35.094830 -1.164992 23.525412 -7.632793 66.919311 -10.534639 0.000000 0.000000 0.000000 
-13.144728 80.746323 -0.019902 179.809443 1.117325 179.937236 -1.931213 -4.191878 12.955698 2.732003 -4.456407 -20.470302 6.366166 -0.436768 29.416566 -3.609070 -6.980725 -9.823306 0.000000 0.000000 0.000000 1.847996 -4.716993 13.514479 -5.776005 3.702625 -24.240562 0.151870 6.284039 34.312603 10.537824 2.193776 -14.005430 0.000000 0.000000 0.000000 4.379051 -1.038206 -1.390928 -3.113135 1.120293 -2.460453 0.443817 -1.289920 8.071984 0.026198 0.066062 0.007213 0.061081 0.191191 8.830320 0.195839 -1.777617 -3.056166 0.000000 0.000000 0.000000 1.342601 0.945790 6.068300 -12.776554 -11.662806 6.369696 -51.071879 -23.621948 -2.295521 1.119168 -37.160751 3.058665 0.000000 0.000000 0.000000 -2.561055 2.579260 5.586997 19.272699 0.914944 7.535399 35.147969 -1.733644 23.658196 -7.237228 66.911293 -10.145414 0.000000 0.000000 0.000000 
-13.207960 80.748169 0.019508 179.804484 1.397738 179.924094 -1.902430 -4.163148 12.926164 2.625029 -4.236800 -20.433020 6.395798 -0.340883 29.414104 -3.555974 -6.965062 -9.816441 0.000000 0.000000 0.000000 1.829163 -4.783640 13.496964 -5.847008 3.856552 -24.264992 0.113070 6.414669 34.244014 10.629778 2.205195 -13.956676 0.000000 0.000000 0.000000 4.465150 -1.117512 -1.367055 -3.047011 1.071595 -2.404102 0.442411 -1.317149 8.110243 0.002313 0.189340 0.006657 0.098222 0.234796 8.861616 0.214399 -1.908442 -2.920121 0.000000 0.000000 0.000000 1.373078 0.935260 6.103197 -12.595835 -11.763488 6.347638 -50.998728 -23.735404 -2.431779 1.104990 -37.629148 3.180840 0.000000 0.000000 0.000000 -2.513976 2.422400 5.684258 19.116648 0.767076 7.357391 35.251412 -2.888386 24.219905 -7.381423 67.085237 -10.347125 0.000000 0.000000 0.000000 
-13.269351 80.744019 0.050216 179.783939 1.762584 179.988462 -1.873371 -4.248673 12.851175 2.462636 -3.886460 -20.435263 6.434868 -0.224675 29.449037 -3.489937 -6.984782 -9.819334 0.000000 0.000000 0.000000 1.802848 -4.838462 13.474847 -5.930953 4.106726 -24.398430 0.081653 6.570751 34.199911 10.752740 2.216181 -13.876386 0.000000 0.000000 0.000000 4.498474 -1.130072 -1.395559 -2.947264 1.107736 -2.334669 0.490368 -1.278309 8.146923 0.047025 0.081310 -0.025858 0.008102 0.132594 8.981157 0.153638 -2.028272 -2.739165 0.000000 0.000000 0.000000 1.332790 0.892732 6.183774 -12.389595 -11.840560 6.310685 -51.007836 -23.476231 -2.637001 1.041853 -37.954173 3.421026 0.000000 0.000000 0.000000 -2.599445 2.481028 5.758544 19.055123 0.416380 7.348384 35.547221 -4.251969 24.653460 -7.501266 67.458664 -10.569600 0.000000 0.000000 0.000000 
-13.338293 80.734863 0.085511 179.818158 2.239167 179.924791 -1.836063 -4.232395 12.850487 2.235964 -3.430590 -20.403684 6.473960 -0.080249 29.514033 -3.467094 -7.098243 -9.842752 0.000000 0.000000 0.000000 1.816596 -4.886783 13.541449 -6.051649 4.423045 -24.518549 0.162142 6.811291 34.205068 10.819812 2.109390 -13.844265 0.000000 0.000000 0.000000 4.642439 -1.112659 -1.299962 -2.792025 1.121205 -2.237810 0.434977 -1.273522 8.209123 0.026890 0.070435 0.026256 0.062750 0.196480 9.000056 0.180990 -2.281022 -2.422998 0.000000 0.000000 0.000000 1.360827 0.770685 6.194869 -12.184834 -11.886703 6.321131 -51.344543 -22.735101 -2.676780 1.014539 -37.847294 3.588592 0.000000 0.000000 0.000000 -2.587628 2.488228 5.772050 19.068705 0.065684 7.255505 35.886360 -5.815102 25.141006 -7.687122 67.876152 -10.868535 0.000000 0.000000 0.000000 
-13.417887 80.719444 0.131899 179.823663 2.819668 179.867472 -1.720755 -4.165778 12.862405 1.940172 -2.908665 -20.398840 6.562642 0.066900 29.582803 -3.444250 -7.257028 -9.867284 0.000000 0.000000 0.000000 1.784967 -4.780902 13.628346 -6.101656 4.706114 -24.630668 0.091101 7.007579 34.178567 10.949737 2.072490 -13.883887 0.000000 0.000000 0.000000 4.745443 -1.071573 -1.224454 -2.616757 1.096593 -2.115409 0.427561 -1.321282 8.341724 0.049934 0.045405 -0.004288 -0.011924 0.123041 9.117009 0.137143 -2.496218 -2.115282 0.000000 0.000000 0.000000 1.301263 0.912421 6.316869 -11.986072 -11.880148 6.368628 -51.662803 -21.691386 -2.740178 1.023647 -37.021514 3.789066 0.000000 0.000000 0.000000 -2.624165 2.531533 5.850206 18.999846 -0.255255 7.149521 36.344786 -7.353637 25.574779 -8.092318 68.345461 -11.432670 0.000000 0.000000 0.000000 
-13.528971 80.707024 0.179996 179.801711 3.304922 179.839619 -1.603266 -4.097184 12.841375 1.613604 -2.412630 -20.445505 6.613851 0.231692 29.708994 -3.463693 -7.477199 -9.845166 0.000000 0.000000 0.000000 1.872589 -4.797419 13.691514 -6.344416 5.013590 -24.834996 -0.050570 7.097816 34.189195 11.192367 2.062450 -13.824381 0.000000 0.000000 0.000000 4.872689 -0.976091 -1.134965 -2.404857 1.083253 -2.048469 0.411688 -1.363863 8.454478 0.044376 0.040579 -0.060829 -0.024029 0.057089 9.281758 0.160285 -2.805290 -1.680480 0.000000 0.000000 0.000000 1.291938 0.736386 6.435271 -11.770463 -11.865878 6.360232 -52.212637 -20.156143 -2.887904 1.047027 -35.475507 3.919275 0.000000 0.000000 0.000000 -2.651400 2.424174 5.995898 18.949212 -0.767749 6.987609 36.705030 -8.888122 25.664473 -8.213359 68.812558 -11.732322 0.000000 0.000000 0.000000 
-13.644363 80.698799 0.230621 179.766467 3.896998 179.923329 -1.369868 -4.048561 12.773140 1.222668 -1.977170 -20.509076 6.662886 0.544371 29.784515 -3.477213 -7.688713 -9.757125 0.000000 0.000000 0.000000 1.738952 -4.646307 13.716338 -6.385497 5.593313 -25.065500 -0.122731 7.322181 34.110221 11.313017 1.983912 -13.773427 0.000000 0.000000 0.000000 4.985972 -0.880477 -1.170560 -2.210049 1.076323 -1.962027 0.384967 -1.416888 8.519562 0.041047 0.016748 -0.003271 -0.023374 0.035942 9.380175 0.156250 -3.098356 -1.246297 0.000000 0.000000 0.000000 1.310505 0.763052 6.571792 -11.550714 -11.892760 6.372075 -52.689363 -18.599430 -3.064339 1.200713 -33.208878 3.965421 0.000000 0.000000 0.000000 -2.653124 2.352026 6.050124 18.779141 -1.340368 6.800223 37.058066 -10.330795 25.608655 -8.474988 69.400514 -12.162830 0.000000 0.000000 0.000000 
